SplineFontDB: 3.2
FontName: Untitled1
FullName: Untitled1
FamilyName: Untitled1
Weight: Regular
Copyright: Copyright (c) 2020, Tim
UComments: "2020-10-29: Created with FontForge (http://fontforge.org)"
Version: 001.000
ItalicAngle: 0
UnderlinePosition: -100
UnderlineWidth: 50
Ascent: 800
Descent: 200
InvalidEm: 0
LayerCount: 2
Layer: 0 0 "Back" 1
Layer: 1 0 "Fore" 0
XUID: [1021 595 1755729993 24577]
StyleMap: 0x0000
FSType: 0
OS2Version: 0
OS2_WeightWidthSlopeOnly: 0
OS2_UseTypoMetrics: 1
CreationTime: 1603989161
ModificationTime: 1611079126
OS2TypoAscent: 0
OS2TypoAOffset: 1
OS2TypoDescent: 0
OS2TypoDOffset: 1
OS2TypoLinegap: 90
OS2WinAscent: 0
OS2WinAOffset: 1
OS2WinDescent: 0
OS2WinDOffset: 1
HheadAscent: 0
HheadAOffset: 1
HheadDescent: 0
HheadDOffset: 1
DEI: 91125
Encoding: ISO8859-1
UnicodeInterp: none
NameList: AGL For New Fonts
DisplaySize: -48
AntiAlias: 1
FitToEm: 0
WinInfo: 36 12 6
BeginChars: 256 26

StartChar: A
Encoding: 65 65 0
Width: 1000
Flags: H
LayerCount: 2
Fore
SplineSet
599.6875 700.3125 m 0
 671.5625 700.3125 729.6875 642.1875 729.6875 570.3125 c 0
 729.6875 544.375 722.1875 520.625 709.375 500.3125 c 1
 809.6875 500.3125 l 2
 837.1875 500.3125 859.6875 477.8125 859.6875 450.3125 c 2
 859.6875 310.3125 l 2
 859.6875 286.25 842.5 265.9375 819.6875 261.25 c 1
 819.6875 30.3125 l 2
 819.6875 -39.0625 765.3125 -95.625 697.1875 -99.375 c 2
 689.6875 -99.6875 l 1
 309.6875 -99.6875 l 2
 240.3125 -99.6875 183.75 -45.3125 180 22.8125 c 2
 179.6875 30.3125 l 1
 179.6875 261.25 l 1
 156.875 265.9375 139.6875 285.9375 139.6875 310.3125 c 2
 139.6875 450.3125 l 2
 139.6875 477.8125 162.1875 500.3125 189.6875 500.3125 c 2
 290 500.3125 l 1
 277.1875 520.625 269.6875 544.6875 269.6875 570.3125 c 0
 269.6875 642.1875 327.8125 700.3125 399.6875 700.3125 c 0
 440 700.3125 475.9375 682.1875 499.6875 653.4375 c 1
 523.75 681.875 559.6875 700.3125 599.6875 700.3125 c 0
469.6875 260.3125 m 1
 239.6875 260.3125 l 1
 239.6875 30.3125 l 2
 239.6875 -6.5625 268.125 -36.5625 304.0625 -39.375 c 2
 309.6875 -39.6875 l 1
 469.6875 -39.6875 l 1
 469.6875 260.3125 l 1
759.6875 260.3125 m 1
 529.6875 260.3125 l 1
 529.6875 -39.6875 l 1
 689.6875 -39.6875 l 2
 726.5625 -39.6875 756.5625 -11.25 759.375 24.6875 c 2
 759.6875 30.3125 l 1
 759.6875 260.3125 l 1
469.6875 440.3125 m 1
 199.6875 440.3125 l 1
 199.6875 320.3125 l 1
 469.6875 320.3125 l 1
 469.6875 440.3125 l 1
799.6875 320.3125 m 1
 799.6875 440.3125 l 1
 529.6875 440.3125 l 1
 529.6875 320.3125 l 1
 799.6875 320.3125 l 1
599.6875 640.3125 m 0
 560.9375 640.3125 529.6875 609.0625 529.6875 570.3125 c 2
 529.6875 500.3125 l 1
 600.625 500.3125 l 1
 605.3125 500.625 l 2
 641.25 503.4375 669.6875 533.75 669.6875 570.3125 c 0
 669.6875 608.75 638.4375 640.3125 599.6875 640.3125 c 0
399.6875 640.3125 m 0
 360.9375 640.3125 329.6875 609.0625 329.6875 570.3125 c 0
 329.6875 533.4375 358.125 503.4375 394.0625 500.625 c 2
 398.75 500.3125 l 1
 469.6875 500.3125 l 1
 469.6875 570.3125 l 1
 469.375 575.9375 l 2
 466.5625 611.875 436.5625 640.3125 399.6875 640.3125 c 0
EndSplineSet
Validated: 1
EndChar

StartChar: B
Encoding: 66 66 1
Width: 1000
Flags: H
LayerCount: 2
Fore
SplineSet
789.375 615.9375 m 1
 850.3125 615.9375 900 566.5625 900 505.3125 c 2
 900 94.6875 l 2
 900 33.75 850.625 -15.9375 789.375 -15.9375 c 2
 210.3125 -15.9375 l 2
 149.375 -15.9375 99.6875 33.4375 99.6875 94.6875 c 2
 99.6875 505.625 l 2
 99.6875 566.5625 149.0625 616.25 210.3125 616.25 c 2
 789.375 616.25 l 1
 789.375 615.9375 l 1
847.1875 419.0625 m 1
 512.5 235 l 2
 505.625 231.25 497.1875 230.625 489.6875 233.75 c 2
 486.875 235 l 1
 152.5 419.0625 l 1
 152.5 95 l 2
 152.5 63.125 178.4375 37.1875 210.3125 37.1875 c 2
 789.375 37.1875 l 2
 821.25 37.1875 847.1875 63.125 847.1875 95 c 2
 847.1875 419.0625 l 1
789.375 563.4375 m 2
 210.3125 563.4375 l 2
 178.4375 563.4375 152.5 537.5 152.5 505.625 c 2
 152.5 479.375 l 1
 500 288.4375 l 1
 847.5 479.375 l 1
 847.5 505.625 l 2
 847.1875 537.5 821.25 563.4375 789.375 563.4375 c 2
EndSplineSet
Validated: 1
EndChar

StartChar: C
Encoding: 67 67 2
Width: 1000
Flags: H
LayerCount: 2
Fore
SplineSet
296.25 679.0625 m 2
 351.5625 695.625 l 2
 403.75 711.25 459.375 685.9375 481.5625 636.25 c 2
 515.9375 559.6875 l 2
 535 517.5 525 467.8125 490.9375 435.9375 c 2
 430.625 379.6875 l 2
 430 379.0625 429.375 378.125 428.75 377.1875 c 0
 422.5 364.375 431.875 330 461.875 278.125 c 0
 495.625 219.6875 521.875 196.5625 533.75 200 c 2
 612.8125 224.0625 l 2
 657.1875 237.5 705.3125 221.5625 732.1875 183.75 c 2
 781.25 115.9375 l 2
 813.125 71.875 807.1875 11.25 767.8125 -26.25 c 2
 726.25 -65.625 l 2
 696.5625 -93.75 655 -105.625 615 -97.1875 c 0
 497.8125 -72.8125 392.8125 21.5625 299.0625 184.0625 c 0
 205.3125 346.5625 175.9375 485 213.75 598.75 c 0
 226.5625 637.1875 257.1875 667.1875 296.25 679.0625 c 2
310.625 630.9375 m 2
 287.1875 623.75 268.75 605.9375 260.9375 582.8125 c 0
 228.4375 484.6875 254.6875 360.3125 342.1875 209.0625 c 0
 429.375 57.8125 524.0625 -27.1875 625 -48.125 c 0
 649.0625 -53.125 674.0625 -45.9375 691.875 -29.0625 c 2
 734.0625 10.625 l 2
 755.3125 30.625 758.4375 63.4375 741.25 87.1875 c 2
 692.1875 155 l 2
 677.5 175.3125 651.5625 184.0625 627.8125 176.5625 c 2
 548.75 152.5 l 2
 505 139.375 463.75 175.9375 419.0625 253.4375 c 0
 381.25 319.0625 368.125 366.5625 384.375 399.6875 c 0
 387.5 405.9375 391.875 411.875 396.875 416.5625 c 2
 457.1875 472.8125 l 2
 475.3125 490 480.9375 516.5625 470.625 539.375 c 2
 436.25 615.9375 l 2
 424.375 642.8125 394.375 656.25 366.25 647.8125 c 2
 310.625 630.9375 l 2
EndSplineSet
Validated: 33
EndChar

StartChar: D
Encoding: 68 68 3
Width: 1000
Flags: H
LayerCount: 2
Fore
SplineSet
723.125 287.8125 m 1
 725.9375 246.5625 739.6875 210.625 764.6875 179.6875 c 0
 780.3125 160.625 803.75 141.5625 835.3125 122.5 c 0
 870.3125 101.25 882.1875 55.9375 863.125 19.6875 c 1
 863.125 19.6875 l 1
 837.8125 -28.125 777.5 -45 730.9375 -17.8125 c 0
 670.9375 17.1875 625.9375 55.9375 595.625 97.8125 c 0
 552.1875 158.4375 530.3125 241.25 530.3125 345.9375 c 2
 530.3125 439.6875 l 2
 530.3125 545.3125 615.9375 630.625 721.25 630.625 c 1
 721.25 630.625 l 1
 819.6875 630.625 899.6875 550.9375 899.6875 452.1875 c 1
 899.6875 452.1875 l 1
 899.6875 361.5625 826.25 287.8125 735.3125 287.8125 c 2
 723.125 287.8125 l 1
292.5 287.8125 m 1
 295.3125 246.5625 309.0625 210.625 334.0625 179.6875 c 0
 349.6875 160.625 373.125 141.5625 404.6875 122.5 c 0
 439.6875 101.25 451.5625 55.9375 432.5 19.6875 c 1
 432.5 19.6875 l 1
 407.1875 -28.125 346.875 -45 300.3125 -17.8125 c 0
 240.3125 17.1875 195.3125 55.9375 165 97.8125 c 0
 121.5625 158.4375 99.6875 241.25 99.6875 345.9375 c 2
 99.6875 439.6875 l 2
 99.6875 545.3125 185.3125 630.625 290.625 630.625 c 1
 290.625 630.625 l 1
 389.0625 630.625 469.0625 550.9375 469.0625 452.1875 c 1
 469.0625 452.1875 l 1
 469.0625 361.5625 395.625 287.8125 304.6875 287.8125 c 2
 292.5 287.8125 l 1
EndSplineSet
Validated: 33
EndChar

StartChar: T
Encoding: 84 84 4
Width: 1000
Flags: H
LayerCount: 2
Fore
SplineSet
410 377.8125 m 4
 424.375 380 435.9375 371.25 438.125 356.875 c 4
 440.625 337.8125 425.9375 317.5 407.8125 315 c 4
 393.75 313.125 383.4375 321.875 380.9375 337.5 c 4
 378.125 355.625 392.1875 375 410 377.8125 c 4
347.8125 371.875 m 4
 342.8125 370.3125 339.375 368.75 338.4375 361.875 c 4
 319.375 229.0625 299.6875 96.5625 280.625 -36.25 c 4
 278.125 -55.3125 276.5625 -74.375 274.6875 -93.4375 c 4
 273.4375 -103.4375 269.0625 -111.5625 260.9375 -117.1875 c 4
 252.5 -123.125 243.125 -125 233.4375 -120 c 4
 223.75 -115.3125 220.625 -106.5625 221.875 -96.25 c 4
 227.1875 -49.0625 231.5625 -1.875 238.4375 45 c 4
 253.125 143.75 268.75 241.875 284.0625 340.3125 c 4
 284.375 342.5 284.6875 344.6875 285 348.4375 c 5
 261.25 340.9375 238.75 333.75 216.5625 326.25 c 4
 190 317.1875 163.125 307.5 136.5625 298.125 c 4
 117.1875 291.25 106.25 294.6875 101.5625 309.0625 c 4
 96.25 325.625 105.625 344.0625 121.875 349.375 c 4
 164.6875 363.125 207.5 376.5625 250 391.25 c 4
 305.625 410.3125 361.25 430.625 416.875 450.3125 c 4
 441.875 459.375 466.875 467.8125 491.875 476.25 c 4
 503.4375 480.3125 513.75 477.8125 520 469.6875 c 4
 526.25 461.875 526.875 449.375 519.6875 440.625 c 4
 514.375 434.0625 506.875 428.125 499.0625 425.3125 c 4
 448.75 406.875 398.125 389.375 347.8125 371.875 c 4
708.75 -76.875 m 4
 715 -80.3125 719.6875 -86.875 721.5625 -95.3125 c 4
 724.0625 -114.375 709.375 -134.6875 691.25 -137.1875 c 4
 677.1875 -139.0625 666.875 -130.3125 664.375 -114.6875 c 4
 662.8125 -105.3125 665.625 -95.9375 671.25 -88.4375 c 4
 673.75 -84.6875 672.8125 -80 669.0625 -77.5 c 4
 662.5 -73.4375 658.4375 -66.25 659.0625 -57.1875 c 4
 659.0625 -56.25 659.0625 -55.3125 659.0625 -54.375 c 4
 655.3125 24.0625 633.125 161.25 625.625 233.4375 c 4
 625.3125 237.5 620 238.125 618.75 234.375 c 4
 610 209.0625 592.1875 160.9375 571.5625 134.0625 c 4
 571.5625 133.75 571.5625 133.4375 571.25 133.4375 c 4
 556.5625 119.6875 551.875 113.125 532.5 111.875 c 4
 515.3125 110.625 502.8125 139.375 493.125 158.125 c 4
 491.5625 160.625 487.8125 160.625 486.5625 157.8125 c 4
 477.1875 137.1875 456.875 106.25 448.125 97.5 c 4
 440.3125 90 430.3125 83.125 420.3125 78.75 c 4
 391.25 66.25 363.4375 81.875 360.3125 113.4375 c 4
 358.4375 131.875 361.25 150.9375 362.8125 169.6875 c 4
 364.375 187.5 370.625 224.6875 373.4375 245.9375 c 4
 373.75 248.75 371.25 250.625 368.75 250 c 4
 363.125 248.4375 358.75 245.9375 354.0625 244.375 c 4
 351.25 243.125 348.4375 245.9375 349.375 248.75 c 6
 352.1875 258.125 l 6
 352.1875 258.4375 352.5 258.4375 352.5 258.75 c 4
 359.0625 270.9375 363.75 281.875 369.6875 285 c 4
 375 287.5 379.6875 291.5625 385 294.0625 c 4
 404.0625 303.125 422.8125 293.4375 424.375 272.5 c 4
 425.625 258.75 424.0625 244.375 422.5 230.3125 c 4
 419.6875 205.3125 415.9375 180.625 412.8125 155.625 c 4
 412.1875 150 411.875 144.375 412.1875 138.4375 c 4
 412.5 135.3125 416.875 133.75 418.75 136.5625 c 4
 419.6875 137.8125 420.625 139.375 421.25 140.9375 c 4
 432.1875 165.3125 444.375 189.375 453.125 214.375 c 4
 463.75 245 471.5625 276.5625 480.625 307.5 c 4
 483.4375 317.5 488.125 326.25 497.5 331.5625 c 4
 506.25 336.5625 515.625 337.8125 524.375 332.1875 c 4
 533.125 326.875 535.625 318.125 534.375 308.4375 c 4
 530.3125 276.875 521.5625 245 517.8125 213.4375 c 4
 515.625 194.0625 518.4375 185.9375 523.4375 176.25 c 4
 525 173.125 529.375 168.4375 533.4375 165.9375 c 4
 537.8125 163.4375 542.8125 162.5 545 167.1875 c 4
 553.4375 184.6875 559.0625 210.3125 563.125 223.125 c 4
 571.5625 252.1875 572.5 256.25 577.5 275 c 4
 584.0625 299.375 589.6875 324.375 596.5625 348.75 c 4
 598.75 356.875 602.8125 364.6875 607.8125 371.25 c 4
 615.3125 380.9375 628.4375 383.75 638.4375 380 c 4
 648.125 376.25 654.375 366.5625 653.125 353.4375 c 4
 653.125 353.125 653.125 352.8125 653.125 352.5 c 6
 710.9375 -51.875 l 6
 711.25 -53.75 710.9375 -55.625 710.625 -57.1875 c 4
 709.6875 -60.625 708.125 -64.0625 706.25 -66.875 c 4
 704.0625 -70.3125 705.3125 -75 708.75 -76.875 c 4
587.5 91.5625 m 4
 600 94.0625 608.4375 91.875 614.375 84.6875 c 4
 620.625 76.5625 620.625 67.8125 616.5625 58.75 c 4
 611.875 48.75 603.75 42.8125 593.4375 39.375 c 4
 530 17.5 453.125 -2.8125 389.6875 -24.6875 c 4
 373.75 -30.3125 357.8125 -36.5625 342.1875 -43.125 c 4
 324.0625 -50.625 310.625 -47.8125 304.6875 -34.6875 c 4
 298.4375 -21.25 306.25 -3.125 322.8125 3.75 c 4
 349.375 14.375 376.25 24.6875 403.125 34.0625 c 4
 453.125 51.5625 517.1875 67.1875 567.5 84.375 c 4
 575.3125 86.875 582.8125 90 587.5 91.5625 c 4
898.4375 149.6875 m 4
 903.4375 135.3125 893.75 118.125 876.25 112.8125 c 4
 849.0625 105 821.25 97.5 793.4375 90.9375 c 6
 749.6875 80 l 6
 748.75 80 747.8125 79.6875 746.875 79.6875 c 4
 735 79.0625 727.1875 82.1875 722.1875 90 c 4
 716.875 98.4375 717.8125 107.5 722.8125 115.9375 c 4
 728.4375 125.625 737.1875 130.3125 747.8125 132.8125 c 4
 813.125 147.8125 747.5 133.125 812.8125 148.4375 c 4
 829.375 152.5 845.625 157.1875 861.875 161.875 c 4
 880.625 167.5 893.75 163.125 898.4375 149.6875 c 4
EndSplineSet
Validated: 33
EndChar

StartChar: zero
Encoding: 48 48 5
Width: 1000
Flags: H
LayerCount: 2
Fore
SplineSet
600 253.4375 m 0
 614.6875 239.6875 622.8125 220 621.875 200.3125 c 0
 622.8125 179.6875 614.6875 160 600 145.625 c 0
 584.6875 132.5 565 125.625 544.6875 126.25 c 2
 400 126.25 l 1
 400 271.875 l 1
 542.1875 271.875 l 2
 563.125 273.125 583.75 266.5625 600 253.4375 c 0
580 347.1875 m 1
 581.5625 347.1875 l 1
 567.8125 336.25 550.9375 330.3125 533.4375 330.625 c 2
 400 330.625 l 1
 400 459.375 l 1
 533.125 459.375 l 2
 550.625 460.3125 567.8125 455 582.1875 445 c 0
 595.625 431.875 601.875 413.75 600 395.3125 c 0
 600.9375 376.875 593.75 359.375 580 347.1875 c 1
766.5625 700 m 2
 840.3125 700 900 640.3125 900.3125 566.5625 c 2
 900.3125 33.125 l 2
 900.3125 -40.625 840.625 -100.3125 766.875 -100.3125 c 2
 233.4375 -100.3125 l 2
 159.6875 -100.3125 100 -40.625 100 33.125 c 2
 100 566.5625 l 2
 100 640.3125 159.6875 700 233.4375 700 c 2
 766.5625 700 l 2
693.75 138.4375 m 0
 701.5625 154.6875 705.9375 172.8125 705.9375 190.9375 c 0
 706.875 219.0625 699.375 246.875 683.75 270.3125 c 0
 667.8125 292.1875 644.0625 306.875 617.1875 310.9375 c 1
 617.1875 310.9375 l 1
 637.1875 319.0625 654.0625 332.5 666.5625 350 c 0
 677.8125 368.125 683.125 389.0625 681.875 410.3125 c 0
 684.375 443.75 670 476.25 643.75 497.1875 c 0
 614.375 517.5 579.375 527.8125 543.75 525.9375 c 2
 317.1875 525.9375 l 1
 317.1875 59.6875 l 1
 531.5625 59.6875 l 2
 558.125 59.0625 584.0625 62.5 609.375 70 c 0
 629.0625 75.3125 647.1875 84.6875 663.125 97.1875 c 0
 676.875 108.125 687.1875 122.1875 693.75 138.4375 c 0
EndSplineSet
Validated: 37
EndChar

StartChar: one
Encoding: 49 49 6
Width: 1000
Flags: H
LayerCount: 2
Fore
SplineSet
402.5 -81.25 m 0
 402.5 -91.875 395 -104.6875 375.9375 -100.625 c 0
 217.1875 -46.5625 102.5 107.1875 102.5 288.4375 c 0
 102.5 514.6875 281.5625 698.4375 502.5 698.4375 c 0
 723.4375 698.4375 902.5 515 902.5 288.4375 c 0
 902.5 107.5 787.8125 -46.25 629.0625 -100.625 c 0
 608.75 -104.6875 601.5625 -91.875 601.5625 -80.9375 c 0
 601.5625 -67.5 602.1875 -23.125 602.1875 31.5625 c 0
 602.1875 69.6875 589.375 94.6875 575 107.5 c 1
 664.0625 117.8125 757.5 152.5 757.5 310 c 0
 757.5 354.6875 741.875 391.25 716.25 420 c 0
 720.3125 430.3125 734.0625 471.875 712.1875 528.4375 c 1
 712.1875 528.4375 678.4375 539.375 602.1875 486.25 c 1
 570.3125 495.3125 536.25 500 502.1875 500 c 0
 468.125 500 433.75 495.3125 401.875 486.25 c 1
 325.3125 539.375 291.875 528.4375 291.875 528.4375 c 1
 270 472.1875 283.75 430.3125 287.8125 420 c 0
 262.1875 391.25 246.5625 354.6875 246.5625 310 c 0
 246.5625 152.8125 340 117.5 428.75 107.1875 c 1
 417.5 97.1875 407.1875 79.0625 403.4375 52.5 c 1
 380.625 41.875 322.5 23.75 286.875 86.5625 c 1
 286.875 86.5625 265.625 125.9375 225.625 128.75 c 1
 225.625 128.75 186.5625 129.0625 222.8125 103.75 c 1
 222.8125 103.75 249.0625 91.25 267.1875 43.75 c 1
 267.1875 43.75 290.625 -36.25 401.875 -11.5625 c 1
 402.1875 -45.625 402.5 -71.5625 402.5 -81.25 c 0
EndSplineSet
Validated: 33
EndChar

StartChar: two
Encoding: 50 50 7
Width: 1000
Flags: H
LayerCount: 2
Fore
SplineSet
304.375 628.125 m 1
 304.375 591.875 l 1
 268.125 591.875 l 1
 268.125 700 l 1
 304.375 700 l 1
 304.375 664.375 l 1
 337.5 664.375 l 1
 337.5 700 l 1
 373.4375 700 l 1
 373.4375 591.875 l 1
 337.5 591.875 l 1
 337.5 628.125 l 1
 304.375 628.125 l 1
420.9375 591.875 m 1
 420.9375 664.0625 l 1
 389.375 664.0625 l 1
 389.375 700 l 1
 489.0625 700 l 1
 489.0625 664.0625 l 1
 457.1875 664.0625 l 1
 457.1875 591.875 l 1
 420.9375 591.875 l 1
540.3125 645.3125 m 1
 540.3125 591.875 l 1
 505 591.875 l 1
 505 700 l 1
 542.5 700 l 1
 565.625 661.875 l 1
 589.0625 700 l 1
 626.5625 700 l 1
 626.5625 591.875 l 1
 590.625 591.875 l 1
 590.625 645.3125 l 1
 565.625 606.875 l 1
 565 606.875 l 1
 540.3125 645.3125 l 1
731.5625 627.5 m 1
 731.5625 591.875 l 1
 644.6875 591.875 l 1
 644.6875 700 l 1
 680.625 700 l 1
 680.625 627.5 l 1
 731.5625 627.5 l 1
215.9375 544.375 m 1
 215.9375 544.375 784.0625 544.375 784.0625 544.375 c 1
 732.1875 -35.625 l 1
 500 -100 l 1
 267.5 -35.625 l 1
 215.9375 544.375 l 1
671.875 354.6875 m 1
 678.125 425.625 l 1
 500 425.625 l 1
 321.875 425.625 l 1
 340.9375 210.625 l 1
 500 210.625 l 1
 500 210.625 l 1
 587.5 210.625 l 1
 579.375 118.4375 l 1
 500 96.875 l 1
 500 96.875 l 1
 500 96.875 l 1
 420.625 118.4375 l 1
 415.3125 177.8125 l 1
 344.0625 177.8125 l 1
 354.375 63.4375 l 1
 500 23.125 l 1
 500 23.125 l 1
 645.9375 63.4375 l 1
 665.3125 281.875 l 1
 500 281.875 l 1
 406.25 281.875 l 1
 399.6875 354.6875 l 1
 500 354.6875 l 1
 671.875 354.6875 l 1
EndSplineSet
Validated: 5
EndChar

StartChar: three
Encoding: 51 51 8
Width: 1000
Flags: H
LayerCount: 2
Fore
SplineSet
428.4375 300.9375 m 0
 428.4375 340.459960938 460.477539062 372.5 500 372.5 c 0
 539.522460938 372.5 571.5625 340.459960938 571.5625 300.9375 c 0
 571.5625 261.415039062 539.522460938 229.375 500 229.375 c 0
 460.477539062 229.375 428.4375 261.415039062 428.4375 300.9375 c 0
858.75 371.875 m 0
 885.625 349.375 900 325 899.6875 301.25 c 0
 899.6875 252.1875 841.875 202.5 748.4375 171.5625 c 0
 743.4375 170 738.4375 168.4375 733.4375 166.875 c 0
 735 159.375 736.875 152.1875 738.125 145.3125 c 0
 746.875 101.25 748.4375 60.3125 742.1875 26.875 c 0
 735.625 -8.75 720.625 -33.75 699.375 -46.25 c 0
 688.75 -52.5 675.9375 -55.625 661.875 -55.625 c 0
 623.125 -55.625 574.0625 -32.1875 522.8125 11.875 c 0
 515.625 18.125 508.4375 24.6875 501.25 31.5625 c 0
 495.625 26.25 490.3125 20.9375 484.6875 16.25 c 0
 450.9375 -13.4375 415.9375 -35 384.0625 -46.25 c 0
 367.5 -52.1875 351.875 -55.3125 337.8125 -55.3125 c 0
 323.4375 -55.3125 310.625 -52.1875 299.6875 -45.9375 c 0
 258.75 -22.1875 244.6875 45.9375 261.875 136.25 c 0
 263.75 145.625 265.625 155 268.125 164.6875 c 0
 260.625 166.875 253.125 169.0625 246.25 171.5625 c 0
 203.75 185.9375 167.5 205.3125 141.875 227.5 c 0
 114.375 250.9375 100 276.25 100 300.9375 c 0
 100 348.125 151.875 394.375 239.0625 424.6875 c 0
 248.4375 428.125 258.4375 431.25 268.75 434.0625 c 0
 266.5625 443.125 264.375 451.875 262.8125 460.625 c 0
 254.375 503.4375 252.8125 542.8125 258.125 574.6875 c 0
 264.0625 609.375 278.125 633.75 298.75 645.625 c 0
 341.25 670.3125 413.4375 645 486.875 579.6875 c 0
 491.5625 575.625 495.9375 571.5625 500.3125 567.1875 c 1
 506.875 573.75 513.75 579.6875 520.3125 585.625 c 0
 553.125 614.375 586.5625 635.3125 616.875 646.5625 c 0
 649.6875 658.4375 678.125 658.4375 699.0625 646.5625 c 0
 741.875 622.1875 755.9375 546.875 735.9375 450.625 c 0
 734.6875 445 733.4375 439.0625 731.875 433.125 c 0
 740.625 430.625 749.375 427.8125 757.5 425 c 0
 799.0625 410.9375 834.0625 392.5 858.75 371.875 c 0
628.75 614.6875 m 0
 602.5 605 572.8125 585.9375 542.5 560.3125 c 0
 536.25 555 530.3125 549.375 524.0625 543.4375 c 0
 546.875 518.75 569.6875 490.3125 591.5625 459.0625 c 1
 629.375 455.625 665.625 450 698.75 442.1875 c 0
 700.3125 447.5 701.5625 452.5 702.5 457.8125 c 0
 721.25 548.4375 705 604.0625 682.1875 617.1875 c 0
 670.625 624.0625 651.5625 623.125 628.75 614.6875 c 0
611.875 235.625 m 0
 624.375 257.1875 635.625 279.0625 646.25 300.3125 c 1
 635.9375 321.25 624.375 342.5 611.875 364.375 c 0
 599.375 385.9375 586.25 406.25 573.125 425.9375 c 1
 549.375 427.8125 525 428.75 500.3125 428.75 c 0
 475.625 428.75 451.25 427.8125 427.5 425.9375 c 1
 414.0625 406.25 401.25 385.625 388.75 364.0625 c 1
 388.75 364.0625 l 1
 376.25 342.8125 365 321.25 354.6875 299.6875 c 1
 365 278.4375 376.25 256.5625 388.75 235.3125 c 0
 400.9375 214.0625 414.0625 193.4375 427.8125 173.4375 c 1
 451.25 171.875 475.3125 171.25 500.3125 171.25 c 0
 525.3125 171.25 550 172.1875 573.75 173.75 c 1
 586.5625 193.125 599.375 213.75 611.875 235.625 c 0
664.6875 260.9375 m 1
 657.1875 246.875 649.6875 232.8125 641.5625 218.4375 c 0
 633.4375 204.375 625.3125 190.9375 616.875 177.8125 c 1
 643.4375 180.9375 668.4375 185.3125 691.5625 190.625 c 1
 684.375 212.8125 675.3125 236.5625 664.6875 260.9375 c 1
501.5625 80.3125 m 1
 517.1875 97.5 532.8125 116.875 548.75 138.125 c 1
 532.8125 137.1875 516.5625 136.875 500.3125 136.875 c 0
 484.375 136.875 468.75 137.1875 453.4375 137.8125 c 1
 469.0625 117.1875 485.3125 97.8125 501.5625 80.3125 c 1
384.0625 177.1875 m 1
 375.625 190.625 367.1875 204.375 358.75 218.4375 c 0
 350.9375 232.1875 343.4375 245.9375 336.25 259.6875 c 1
 325.9375 235.625 317.5 211.875 310.3125 189.0625 c 1
 333.125 184.0625 357.8125 180 384.0625 177.1875 c 1
359.0625 381.5625 m 0
 366.875 395.3125 375.3125 408.75 383.75 421.875 c 1
 358.4375 418.75 334.0625 414.375 311.25 409.375 c 1
 318.125 386.875 326.5625 363.4375 336.5625 340 c 1
 343.4375 354.0625 351.25 367.8125 359.0625 381.5625 c 0
500.625 518.75 m 1
 484.375 501.25 468.75 482.5 453.125 462.1875 c 1
 468.75 463.125 484.375 463.4375 500 463.4375 c 0
 515.9375 463.4375 531.875 462.8125 547.5 462.1875 c 1
 532.1875 482.8125 516.25 501.875 500.625 518.75 c 1
641.25 381.875 m 0
 649.375 367.8125 656.875 353.75 664.375 340 c 1
 674.375 363.75 683.125 386.875 690 409.0625 c 1
 666.875 414.375 642.5 418.75 616.875 421.875 c 1
 625.3125 408.75 633.4375 395.625 641.25 381.875 c 0
296.25 466.875 m 0
 297.8125 459.0625 299.6875 450.625 301.5625 442.1875 c 1
 334.6875 449.6875 370.9375 455.3125 408.4375 458.75 c 1
 430 489.375 453.125 517.8125 476.25 542.8125 c 0
 472.5 546.875 468.4375 550.625 464.375 554.0625 c 0
 395.3125 615.625 339.0625 629.375 316.25 616.25 c 0
 304.6875 609.6875 295.9375 592.8125 291.875 568.75 c 0
 287.1875 540.9375 288.4375 505.625 296.25 466.875 c 0
257.5 203.75 m 0
 263.75 201.5625 270.625 199.375 277.5 197.5 c 0
 287.5 230.625 300.9375 265 316.875 300 c 1
 300.9375 334.375 287.8125 368.4375 277.8125 401.25 c 0
 268.125 398.4375 259.0625 395.625 250.3125 392.5 c 0
 170.3125 364.6875 134.375 326.5625 134.375 300.9375 c 0
 134.375 274.375 172.8125 232.5 257.5 203.75 c 0
337.8125 -21.25 m 0
 366.25 -21.25 410.9375 -3.4375 462.5 41.5625 c 0
 467.5 45.9375 472.8125 50.625 477.8125 55.625 c 0
 454.375 80.9375 431.25 109.375 409.0625 140.625 c 1
 370 143.75 333.75 149.0625 301.25 156.25 c 0
 298.75 147.1875 296.875 138.4375 295.3125 129.6875 c 0
 279.375 46.25 294.6875 -3.75 316.5625 -16.5625 c 0
 321.875 -19.6875 329.0625 -21.25 337.8125 -21.25 c 0
705.3125 138.4375 m 0
 704.0625 144.6875 702.5 151.25 700.625 157.8125 c 0
 667.8125 150.3125 631.25 144.6875 592.5 141.25 c 1
 570.3125 109.0625 547.8125 80.625 525.3125 55.9375 c 0
 532.1875 49.375 539.0625 43.125 545.625 37.5 c 0
 609.6875 -17.8125 660.625 -29.6875 682.8125 -16.875 c 0
 705.9375 -3.4375 722.8125 50.625 705.3125 138.4375 c 0
737.8125 203.4375 m 0
 825.9375 232.8125 865.9375 274.375 865.9375 300.625 c 0
 865.9375 314.0625 855.625 330 836.875 345.625 c 0
 815.3125 363.4375 784.0625 380 746.5625 392.8125 c 0
 739.0625 395.625 730.9375 397.8125 722.8125 400.3125 c 0
 712.8125 368.4375 699.6875 334.6875 683.75 300.3125 c 1
 700.625 265 714.375 230.9375 724.375 199.0625 c 1
 729.0625 200.625 733.4375 201.875 737.8125 203.4375 c 0
EndSplineSet
Validated: 33
EndChar

StartChar: four
Encoding: 52 52 9
Width: 1000
Flags: H
LayerCount: 2
Fore
SplineSet
788.75 255 m 1
 788.75 255 l 1
 860.9375 255.625 901.875 208.75 899.375 166.25 c 0
 898.125 132.5 867.1875 118.75 861.5625 117.8125 c 0
 857.5 117.1875 855.3125 117.1875 854.6875 120.3125 c 0
 854.375 122.5 855.625 123.4375 860.625 126.5625 c 0
 865.625 129.6875 880.3125 139.6875 882.8125 157.8125 c 0
 885.3125 175.9375 871.875 219.375 802.1875 227.5 c 0
 769.6875 231.25 744.375 226.5625 724.6875 218.4375 c 0
 728.4375 208.75 731.25 199.0625 731.5625 189.0625 c 0
 732.5 167.1875 717.5 151.25 701.875 139.6875 c 0
 692.8125 133.125 683.125 128.75 675 125.9375 c 0
 668.75 123.125 660 120.3125 653.75 121.5625 c 0
 640.3125 124.0625 632.8125 136.25 642.1875 162.8125 c 0
 647.1875 177.1875 661.5625 199.0625 684.6875 217.8125 c 0
 679.0625 228.75 673.4375 240 670.3125 250 c 0
 664.375 270 662.5 282.1875 662.5 282.1875 c 1
 662.5 282.1875 643.4375 242.8125 618.75 206.5625 c 0
 617.1875 204.375 615.625 202.1875 614.375 200.3125 c 0
 619.0625 189.0625 622.8125 176.875 623.4375 165 c 0
 624.0625 143.4375 614.6875 126.875 599.0625 115.3125 c 0
 590.625 109.375 581.5625 105 573.75 102.1875 c 0
 568.75 99.6875 558.75 96.25 544.375 95.3125 c 0
 536.5625 94.6875 529.0625 95.3125 524.6875 98.4375 c 0
 519.0625 102.8125 518.125 108.125 521.25 115.625 c 0
 523.75 121.875 542.8125 143.4375 558.75 162.5 c 0
 563.125 167.8125 567.5 173.125 571.25 178.125 c 0
 571.25 178.4375 571.25 178.4375 571.25 178.4375 c 1
 571.25 178.4375 574.0625 182.1875 578.75 188.75 c 0
 572.8125 201.25 565.3125 214.375 561.875 226.25 c 0
 555.9375 246.25 554.0625 258.4375 554.0625 258.4375 c 1
 554.0625 258.4375 534.6875 208.75 514.375 169.0625 c 0
 498.75 138.4375 488.4375 119.6875 483.75 111.5625 c 2
 483.75 111.25 l 1
 483.75 111.25 483.125 110 481.875 108.125 c 0
 481.25 107.1875 480.9375 106.5625 480.9375 106.5625 c 1
 480.9375 106.5625 l 1
 475.625 98.75 464.0625 83.75 452.1875 83.75 c 0
 420 83.75 431.875 149.0625 431.875 149.0625 c 1
 431.875 149.0625 422.5 124.6875 411.875 104.0625 c 0
 403.125 87.1875 395.3125 72.8125 378.125 72.8125 c 0
 373.125 72.8125 365.3125 72.8125 358.75 79.0625 c 0
 344.0625 93.125 332.8125 128.75 335 156.25 c 0
 336.875 179.6875 340.625 195.9375 345.625 209.375 c 1
 336.875 204.6875 326.5625 199.0625 316.25 192.8125 c 0
 310.9375 189.6875 305.625 186.5625 300.3125 183.4375 c 1
 300.625 183.125 300.9375 182.8125 300.9375 182.5 c 0
 314.375 156.875 317.8125 100.9375 289.0625 58.125 c 0
 260.3125 15.3125 206.875 -10.625 154.6875 3.75 c 0
 138.125 8.75 112.5 43.4375 134.375 91.875 c 0
 153.75 134.6875 231.25 175.3125 251.5625 185.3125 c 0
 253.4375 186.25 255.3125 187.1875 257.1875 188.4375 c 1
 216.5625 224.0625 115.3125 271.875 100.9375 345.625 c 0
 96.875 366.25 106.5625 415.9375 167.5 472.8125 c 0
 218.75 520.9375 290 557.5 355.625 580.625 c 0
 466.25 620 582.8125 596.875 600.9375 526.25 c 0
 618.4375 456.875 558.4375 374.0625 481.25 344.375 c 0
 412.5 317.8125 355.625 322.1875 332.1875 329.6875 c 0
 305.625 338.4375 290 355.9375 286.25 365.9375 c 0
 284.6875 369.6875 282.1875 376.25 286.25 378.4375 c 0
 288.75 380 289.6875 379.6875 296.25 372.1875 c 0
 302.5 365.3125 328.125 346.5625 376.5625 351.875 c 0
 503.75 366.25 580.625 465 556.25 518.125 c 0
 539.375 555.625 441.5625 572.1875 319.0625 511.25 c 0
 169.6875 436.875 161.5625 375.625 160.3125 352.1875 c 0
 156.875 288.125 239.375 254.375 284.0625 206.5625 c 0
 284.6875 205.9375 285.3125 205.3125 285.9375 204.6875 c 0
 294.375 209.375 303.125 214.375 311.875 219.0625 c 0
 334.375 231.5625 355.625 243.125 365.625 248.4375 c 0
 381.25 271.25 413.125 296.5625 436.25 296.5625 c 0
 473.125 296.5625 460.625 243.4375 460.625 243.4375 c 1
 460.625 243.4375 461.5625 245.9375 462.5 245.9375 c 0
 463.4375 245.9375 467.8125 252.8125 479.0625 248.75 c 0
 490.625 244.375 488.125 236.25 488.125 235.3125 c 0
 488.125 233.75 474.375 186.875 468.4375 156.5625 c 0
 465.625 142.1875 467.5 131.5625 468.125 131.5625 c 0
 469.375 131.5625 471.5625 135 473.75 139.0625 c 1
 473.75 139.0625 l 1
 473.75 139.0625 475.3125 142.1875 478.125 147.5 c 0
 478.125 147.8125 477.8125 147.1875 477.5 146.5625 c 1
 477.8125 147.1875 478.125 147.8125 478.75 148.75 c 0
 482.1875 155 486.5625 164.0625 491.875 175.625 c 0
 501.875 198.125 541.25 285 544.375 294.6875 c 0
 547.5 304.0625 549.375 314.0625 550.9375 318.4375 c 0
 552.5 322.8125 566.25 325.9375 582.5 325.9375 c 0
 598.4375 325.625 600.3125 318.75 600.3125 317.5 c 0
 600.625 315.9375 592.8125 296.875 590.9375 283.4375 c 0
 589.0625 270 590.625 263.125 592.1875 251.875 c 0
 593.4375 244.375 597.8125 235 603.4375 224.375 c 1
 620 251.5625 649.375 303.75 652.1875 318.4375 c 0
 654.0625 328.4375 657.1875 337.8125 658.75 342.1875 c 0
 660.3125 346.5625 674.0625 349.6875 690.3125 349.6875 c 0
 706.25 349.375 708.125 342.5 708.125 341.25 c 0
 708.4375 339.6875 700.625 320.625 698.75 307.1875 c 0
 696.875 293.75 698.4375 286.875 700 275.625 c 0
 701.25 265.9375 708.75 253.125 716.25 238.125 c 1
 736.5625 248.125 760.625 255 788.75 255 c 1
252.1875 74.375 m 1
 252.1875 74.375 l 1
 276.5625 100.625 286.5625 134.0625 276.5625 172.8125 c 1
 275.3125 171.875 274.0625 171.25 272.8125 170.625 c 2
 272.8125 170.625 272.1875 170.3125 271.25 169.6875 c 0
 265 165.9375 260.3125 162.8125 256.875 160.9375 c 0
 241.875 151.5625 219.6875 136.5625 202.5 120.3125 c 0
 174.0625 93.4375 168.125 56.5625 183.125 47.8125 c 0
 196.875 39.6875 229.0625 49.375 252.1875 74.375 c 1
420.3125 188.4375 m 1
 420.3125 188.4375 l 1
 425.3125 200.9375 444.6875 255 440.625 262.5 c 0
 437.5 268.125 423.4375 263.4375 410.9375 249.375 c 0
 402.8125 240.625 389.6875 218.125 383.4375 199.375 c 0
 371.25 161.875 376.5625 123.75 385.3125 121.5625 c 0
 395.3125 118.75 412.1875 168.75 420.3125 188.4375 c 1
558.75 122.1875 m 0
 568.75 128.4375 590 143.4375 590 166.25 c 0
 590 166.875 590 167.5 590 168.125 c 1
 585 161.5625 580.3125 155.625 576.25 150.625 c 0
 569.375 142.1875 551.875 123.4375 551.875 123.4375 c 1
 551.875 123.4375 549.375 120.9375 550.625 120.3125 c 0
 552.1875 119.375 555.3125 120.3125 558.75 122.1875 c 0
665.9375 146.5625 m 1
 665.9375 146.5625 l 1
 678.125 150.9375 698.125 161.5625 698.4375 189.6875 c 0
 698.4375 193.75 697.5 198.4375 695.9375 203.125 c 1
 682.8125 191.5625 675.3125 179.6875 672.1875 172.5 c 0
 663.75 154.0625 663.4375 148.4375 665.9375 146.5625 c 1
EndSplineSet
Validated: 37
EndChar

StartChar: five
Encoding: 53 53 10
Width: 1000
Flags: H
LayerCount: 2
Fore
SplineSet
686.25 682.1875 m 2
 706.5625 700.9375 736.25 705.3125 761.25 693.4375 c 2
 859.6875 645.625 l 2
 882.8125 634.375 897.5 610.9375 897.5 585.3125 c 2
 897.5 15 l 2
 897.5 -10.625 882.8125 -34.0625 859.6875 -45.3125 c 2
 761.25 -93.125 l 2
 736.25 -105 706.875 -100.9375 686.5625 -82.1875 c 2
 357.1875 220.3125 l 1
 180 86.5625 l 2
 164.375 75 143.4375 73.75 126.875 83.4375 c 1
 126.875 83.4375 l 1
 98.75 100 94.6875 138.4375 118.4375 160.3125 c 2
 270.3125 300 l 1
 118.125 439.375 l 2
 94.375 461.25 98.75 500 126.5625 516.25 c 1
 126.5625 516.25 l 1
 143.4375 525.9375 164.375 524.6875 179.6875 513.125 c 2
 356.875 379.6875 l 1
 686.25 682.1875 l 2
720 106.25 m 1
 720 493.75 l 1
 462.8125 300 l 1
 720 106.25 l 1
EndSplineSet
Validated: 33
EndChar

StartChar: six
Encoding: 54 54 11
Width: 1000
Flags: H
LayerCount: 2
Fore
SplineSet
100 300 m 0
 100 520.9375 279.0625 700 500 700 c 0
 720.625 700 899.6875 520.9375 900 300 c 0
 900 79.0625 720.9375 -100 500 -100 c 0
 279.0625 -100 100 79.0625 100 300 c 0
130.9375 300 m 0
 130.9375 154.0625 215.625 27.8125 339.0625 -32.1875 c 1
 162.8125 450.3125 l 1
 142.5 404.375 130.9375 353.4375 130.9375 300 c 0
500 -69.0625 m 0
 542.8125 -69.0625 584.0625 -61.5625 622.5 -48.125 c 1
 621.5625 -46.5625 620.625 -45 620 -43.125 c 2
 506.5625 267.5 l 1
 395.625 -54.0625 l 1
 428.75 -63.75 463.75 -69.0625 500 -69.0625 c 0
798.125 307.1875 m 2
 685.625 -19.0625 l 1
 795.3125 45 869.0625 163.75 869.0625 300 c 0
 869.0625 364.375 852.5 424.6875 823.75 477.1875 c 1
 825.3125 465.625 826.25 452.8125 826.25 439.375 c 0
 826.25 401.875 819.0625 359.6875 798.125 307.1875 c 2
718.75 420.625 m 0
 700 450.9375 682.5 476.5625 682.5 507.5 c 0
 682.5 541.25 708.125 572.8125 744.375 572.8125 c 0
 745.9375 572.8125 747.5 572.8125 749.0625 572.5 c 1
 683.4375 632.5 596.25 669.375 500 669.375 c 0
 370.9375 669.375 257.5 603.125 191.5625 502.8125 c 1
 200.3125 502.8125 208.4375 502.5 215.3125 502.5 c 0
 254.0625 502.5 313.75 507.1875 313.75 507.1875 c 2
 333.75 508.125 336.25 479.0625 316.25 476.5625 c 2
 316.25 476.5625 296.25 474.375 274.0625 473.125 c 1
 408.4375 73.4375 l 1
 489.0625 315.625 l 1
 431.5625 473.125 l 1
 411.5625 474.375 392.8125 476.5625 392.8125 476.5625 c 2
 373.125 477.8125 375.3125 508.4375 395.3125 507.1875 c 2
 395.3125 507.1875 456.25 502.5 492.5 502.5 c 0
 530.9375 502.5 590.9375 507.1875 590.9375 507.1875 c 2
 610.625 508.125 613.125 479.0625 593.125 476.5625 c 2
 593.125 476.5625 573.125 474.375 550.9375 473.125 c 1
 684.375 76.5625 l 1
 721.25 199.375 l 2
 740 247.1875 749.375 287.1875 749.375 318.75 c 0
 749.375 364.375 732.8125 395.9375 718.75 420.625 c 0
EndSplineSet
Validated: 1
EndChar

StartChar: seven
Encoding: 55 55 12
Width: 1000
Flags: H
LayerCount: 2
Fore
SplineSet
100 700 m 1
 900 700 l 1
 900 -100 l 1
 100 -100 l 1
 100 700 l 1
499.0625 128.75 m 1
 499.375 128.75 l 1
 499.375 364.375 l 1
 411.5625 364.375 l 1
 411.5625 132.1875 l 2
 411.5625 72.5 391.5625 42.8125 351.25 42.8125 c 0
 332.5 42.8125 315.625 48.4375 300.625 60 c 1
 300.625 -22.5 l 1
 317.8125 -29.6875 336.875 -33.125 357.5 -33.125 c 0
 403.4375 -33.125 438.4375 -19.375 462.8125 8.4375 c 0
 486.875 36.25 499.0625 76.25 499.0625 128.75 c 1
820.9375 28.4375 m 0
 829.0625 43.125 833.4375 61.5625 833.75 82.1875 c 0
 833.75 98.125 831.25 111.875 826.5625 123.75 c 0
 821.875 135.625 815 146.25 806.25 155.625 c 0
 797.1875 165 786.5625 173.125 774.0625 180.625 c 0
 761.5625 188.125 747.5 195 731.875 201.5625 c 0
 720.3125 206.25 710 210.9375 700.9375 215.3125 c 0
 691.875 220 684.0625 224.375 677.8125 229.0625 c 0
 671.5625 233.75 666.5625 238.4375 663.125 243.75 c 0
 659.6875 248.75 657.8125 254.6875 657.8125 261.25 c 0
 657.8125 267.1875 659.375 272.8125 662.5 277.5 c 0
 665.625 282.5 670 286.5625 675.625 290 c 0
 681.25 293.4375 688.125 296.25 696.25 298.125 c 0
 704.375 300 713.4375 300.9375 723.4375 300.9375 c 0
 730.9375 300.9375 738.4375 300.3125 746.5625 299.375 c 0
 754.6875 298.4375 762.8125 296.5625 770.9375 294.375 c 0
 779.0625 292.1875 786.875 289.375 794.6875 285.9375 c 0
 802.1875 282.5 809.375 278.75 815.9375 274.0625 c 1
 815.9375 355.625 l 1
 802.8125 360.625 788.125 364.375 772.5 366.875 c 0
 756.875 369.375 738.75 370.625 718.4375 370.625 c 0
 697.8125 370.625 678.125 368.4375 659.6875 364.0625 c 0
 640.9375 359.375 624.6875 352.5 610.625 343.125 c 0
 596.5625 333.4375 585.3125 321.5625 577.1875 306.875 c 0
 569.0625 292.1875 565 274.6875 565 254.375 c 0
 565 228.4375 572.5 206.25 587.5 187.8125 c 0
 602.5 169.375 625.3125 154.0625 655.9375 141.25 c 0
 667.8125 136.5625 679.0625 131.5625 689.375 126.875 c 0
 699.6875 122.1875 708.75 117.1875 716.25 112.1875 c 0
 723.75 107.1875 729.6875 101.5625 734.0625 95.625 c 0
 738.4375 89.6875 740.625 82.8125 740.625 75.3125 c 0
 740.625 69.6875 739.375 64.375 736.5625 59.6875 c 0
 733.75 55 729.6875 50.625 724.0625 47.1875 c 0
 718.75 43.4375 711.5625 40.625 703.4375 38.75 c 0
 695 36.5625 685.3125 35.625 674.375 35.625 c 0
 655.3125 35.625 636.5625 39.0625 618.125 45.625 c 0
 599.6875 52.5 582.5 62.5 566.5625 75.625 c 1
 566.5625 -11.5625 l 1
 580.625 -18.75 597.5 -24.0625 616.875 -27.8125 c 0
 636.25 -31.25 656.5625 -33.125 678.125 -33.125 c 0
 699.0625 -33.125 719.0625 -31.25 737.8125 -27.1875 c 0
 756.5625 -23.125 773.125 -16.5625 787.1875 -7.5 c 0
 801.5625 1.5625 812.8125 13.75 820.9375 28.4375 c 0
EndSplineSet
Validated: 1
EndChar

StartChar: E
Encoding: 69 69 13
Width: 1000
Flags: H
LayerCount: 2
Fore
SplineSet
500 10.625 m 0
 512.8125 10.625 523.4375 0.9375 525 -11.875 c 2
 525 -14.375 l 1
 525 -75 l 2
 525 -88.75 513.75 -100 500 -100 c 0
 487.1875 -100 476.5625 -90.3125 475 -77.5 c 2
 475 -75 l 1
 475 -14.375 l 2
 475 -0.3125 485.9375 10.625 500 10.625 c 0
737.8125 98.125 m 2
 739.6875 96.25 l 1
 782.5 53.4375 l 2
 792.1875 43.75 792.1875 27.8125 782.5 18.125 c 0
 773.4375 9.0625 759.0625 8.4375 749.0625 16.25 c 2
 747.1875 18.125 l 1
 704.375 60.9375 l 2
 694.6875 70.625 694.6875 86.5625 704.375 96.25 c 0
 713.75 105.3125 728.125 105.9375 737.8125 98.125 c 2
295 96.25 m 0
 304.0625 87.1875 304.6875 72.8125 296.875 62.8125 c 2
 295 60.9375 l 1
 252.1875 18.125 l 2
 242.5 8.4375 226.5625 8.4375 216.875 18.125 c 0
 207.8125 27.1875 207.1875 41.5625 215 51.5625 c 2
 216.875 53.4375 l 1
 259.6875 96.25 l 2
 269.6875 105.9375 285.3125 105.9375 295 96.25 c 0
500 518.4375 m 0
 620.625 518.4375 718.4375 420.625 718.4375 300 c 0
 718.4375 179.375 620.625 81.5625 500 81.5625 c 0
 379.375 81.5625 281.5625 179.375 281.5625 300 c 0
 281.5625 420.625 379.375 518.4375 500 518.4375 c 0
500 468.4375 m 0
 406.875 468.4375 331.5625 393.125 331.5625 300 c 0
 331.5625 206.875 406.875 131.5625 500 131.5625 c 0
 593.125 131.5625 668.4375 206.875 668.4375 300 c 0
 668.4375 393.125 593.125 468.4375 500 468.4375 c 0
874.6875 324.375 m 2
 888.4375 324.375 899.6875 313.125 899.6875 299.375 c 0
 899.6875 286.5625 890 275.9375 877.1875 274.375 c 2
 874.6875 274.375 l 1
 814.0625 274.375 l 2
 800.3125 274.375 789.0625 285.625 789.0625 299.375 c 0
 789.0625 312.1875 798.75 322.8125 811.5625 324.375 c 2
 814.0625 324.375 l 1
 874.6875 324.375 l 2
186.25 325.3125 m 2
 200 325.3125 211.25 314.0625 211.25 300.3125 c 0
 211.25 287.5 201.5625 276.875 188.75 275.3125 c 2
 186.25 275.3125 l 1
 125.3125 275.3125 l 2
 111.5625 275.3125 100.3125 286.5625 100.3125 300.3125 c 0
 100.3125 313.125 110 323.75 122.8125 325.3125 c 2
 125.3125 325.3125 l 1
 186.25 325.3125 l 2
250 583.75 m 2
 251.875 581.875 l 1
 294.6875 539.0625 l 2
 304.375 529.375 304.375 513.4375 294.6875 503.75 c 0
 285.625 494.6875 271.25 494.0625 261.25 501.875 c 2
 259.375 503.75 l 1
 216.875 546.5625 l 2
 207.1875 556.25 207.1875 572.1875 216.875 581.875 c 0
 225.9375 591.25 240.3125 591.875 250 583.75 c 2
782.8125 582.1875 m 0
 791.875 573.125 792.5 558.75 784.6875 548.75 c 2
 782.8125 546.875 l 1
 740 504.0625 l 2
 730.3125 494.375 714.375 494.375 704.6875 504.0625 c 0
 695.625 513.125 695 527.5 702.8125 537.5 c 2
 704.6875 539.375 l 1
 747.5 582.1875 l 2
 757.1875 591.875 773.125 591.875 782.8125 582.1875 c 0
500 700 m 0
 512.8125 700 523.4375 690.3125 525 677.5 c 2
 525 675 l 1
 525 614.375 l 2
 525 600.625 513.75 589.375 500 589.375 c 0
 487.1875 589.375 476.5625 599.0625 475 611.875 c 2
 475 614.375 l 1
 475 675 l 2
 475 688.75 486.25 700 500 700 c 0
EndSplineSet
Validated: 33
EndChar

StartChar: F
Encoding: 70 70 14
Width: 1000
Flags: H
LayerCount: 2
Fore
SplineSet
813.75 100.3125 m 0
 703.125 -91.25 458.4375 -156.5625 267.1875 -46.25 c 0
 215 -16.25 171.25 24.6875 137.8125 73.125 c 0
 126.5625 89.375 133.75 111.875 152.5 118.4375 c 0
 303.125 172.5 384.0625 235 430.9375 324.375 c 0
 480.3125 418.4375 493.125 521.5625 458.4375 663.125 c 0
 453.75 682.8125 469.0625 701.25 489.0625 700.3125 c 0
 551.25 696.875 612.1875 679.0625 667.5 647.1875 c 0
 858.75 536.25 924.375 291.5625 813.75 100.3125 c 0
480 298.4375 m 0
 428.75 200.625 344.0625 133.125 203.75 78.125 c 1
 229.375 47.8125 260 21.875 295 1.875 c 0
 459.6875 -93.4375 670.625 -36.875 765.625 128.125 c 0
 860.9375 292.8125 804.375 503.75 639.375 598.75 c 0
 605.3125 618.4375 568.4375 632.1875 530.3125 639.0625 c 2
 520 640.9375 l 1
 546.5625 508.125 533.125 400 480 298.4375 c 0
EndSplineSet
Validated: 33
EndChar

StartChar: G
Encoding: 71 71 15
Width: 1000
Flags: H
LayerCount: 2
Fore
SplineSet
805 18.6875 m 1
 805.3125 18.6875 l 1
 805.3125 400.25 l 1
 633.75 400.25 l 2
 591.5625 400.25 557.5 434.3125 557.5 476.5 c 2
 557.5 648.0625 l 1
 328.75 648.0625 l 2
 318.125 648.0625 309.6875 639.625 309.6875 629 c 2
 309.6875 359 l 1
 289.6875 356.1875 270.625 350.5625 252.5 343.0625 c 1
 252.5 629 l 2
 252.5 671.1875 286.5625 705.25 328.75 705.25 c 2
 564.0625 705.25 l 2
 565 705.25 566.25 704.9375 567.1875 704.9375 c 0
 567.8125 704.625 568.75 704.625 569.375 704.625 c 0
 577.5 704 585.625 702.4375 593.125 699.3125 c 0
 595.3125 698.375 597.1875 697.125 599.375 695.875 c 0
 600 695.5625 600.625 695.25 601.25 694.9375 c 0
 601.875 694.625 602.5 694.3125 603.125 694 c 0
 604.375 693.6875 605.3125 693.0625 606.25 692.4375 c 0
 609.375 690.25 611.875 688.0625 614.6875 685.5625 c 0
 615 684.9375 615.3125 684.625 615.9375 684.3125 c 0
 616.5625 683.6875 617.1875 683.375 617.8125 682.75 c 2
 840 460.5625 l 2
 854.375 446.1875 862.5 426.8125 862.5 406.5 c 2
 862.5 18.6875 l 2
 862.5 -23.5 828.4375 -57.5625 786.25 -57.5625 c 2
 526.5625 -57.5625 l 1
 542.8125 -40.6875 556.5625 -21.3125 567.5 -0.375 c 1
 785.9375 -0.375 l 2
 796.5625 -0.375 805 8.0625 805 18.6875 c 1
614.375 605.25 m 1
 614.375 476.5 l 2
 614.375 465.875 622.8125 457.4375 633.4375 457.4375 c 2
 762.1875 457.4375 l 1
 614.375 605.25 l 1
137.8125 110 m 0
 137.8125 225.9375 231.5625 323.6875 347.5 323.6875 c 0
 463.4375 323.6875 557.1875 229.9375 557.1875 114 c 0
 557.1875 -1.9375 463.4375 -95.6875 347.5 -95.6875 c 0
 231.5625 -95.6875 137.8125 -5.9375 137.8125 110 c 0
366.5625 228.375 m 1
 366.5625 239 358.125 247.4375 347.5 247.4375 c 0
 336.875 247.4375 328.4375 239 328.4375 228.375 c 2
 328.4375 45.5625 l 1
 265.625 108.375 l 2
 258.125 115.875 246.25 115.875 238.75 108.375 c 0
 231.25 100.875 231.25 89 238.75 81.5 c 2
 334.0625 -13.8125 l 2
 341.5625 -21.3125 353.4375 -21.3125 360.9375 -13.8125 c 2
 456.25 81.5 l 2
 463.75 89 463.75 100.875 456.25 108.375 c 0
 448.75 115.875 436.875 115.875 429.375 108.375 c 2
 366.5625 45.5625 l 1
 366.5625 228.375 l 1
EndSplineSet
Validated: 1
EndChar

StartChar: H
Encoding: 72 72 16
Width: 1000
Flags: HW
LayerCount: 2
Fore
SplineSet
760 -38.6875 m 6
 760 345.6875 l 5
 564.375 345.6875 l 6
 520.3125 345.6875 484.375 381.625 484.375 425.6875 c 6
 484.375 621.3125 l 5
 260 621.3125 l 6
 249.0625 621.3125 240 612.25 240 601.3125 c 6
 240 -38.6875 l 6
 240 -49.625 249.0625 -58.6875 260 -58.6875 c 6
 740 -58.6875 l 6
 750.9375 -58.6875 760 -49.625 760 -38.6875 c 6
544.375 576.625 m 5
 544.375 425.6875 l 6
 544.375 414.75 553.4375 405.6875 564.375 405.6875 c 6
 715 405.6875 l 5
 544.375 576.625 l 5
796.5625 409.125 m 5
 796.5625 409.125 l 5
 811.5625 394.125 820 373.8125 820 352.875 c 6
 820 346 l 5
 820 -38.375 l 6
 820 -82.4375 784.0625 -118.375 740 -118.375 c 6
 260 -118.375 l 6
 215.9375 -118.375 180 -82.4375 180 -38.375 c 6
 180 601.625 l 6
 180 645.6875 215.9375 681.625 260 681.625 c 6
 484.375 681.625 l 5
 491.25 681.625 l 5
 491.25 681.625 l 5
 493.125 681.625 495 681 496.875 681 c 4
 505.625 680.375 514.0625 678.5 521.875 675.375 c 4
 525 674.125 527.8125 672.25 530.625 670.6875 c 4
 532.1875 669.75 534.0625 668.8125 535.625 667.875 c 4
 538.75 665.6875 541.5625 663.1875 544.375 660.6875 c 4
 545.625 659.75 546.875 658.8125 547.8125 657.875 c 6
 796.5625 409.125 l 5
EndSplineSet
Validated: 5
EndChar

StartChar: I
Encoding: 73 73 17
Width: 1000
Flags: H
LayerCount: 2
Fore
SplineSet
500 700.3125 m 0
 720.9375 700.3125 900 521.25 900 300.3125 c 0
 900 79.375 720.9375 -99.6875 500 -99.6875 c 0
 279.0625 -99.6875 100 79.375 100 300.3125 c 0
 100 521.25 279.0625 700.3125 500 700.3125 c 0
500 640.3125 m 0
 312.1875 640.3125 160 488.125 160 300.3125 c 0
 160 112.5 312.1875 -39.6875 500 -39.6875 c 0
 687.8125 -39.6875 840 112.5 840 300.3125 c 0
 840 488.125 687.8125 640.3125 500 640.3125 c 0
500 360.3125 m 0
 515.3125 360.3125 527.8125 349.0625 529.6875 334.375 c 2
 530 330.3125 l 1
 530 110.3125 l 2
 530 93.75 516.5625 80.3125 500 80.3125 c 0
 484.6875 80.3125 472.1875 91.5625 470.3125 106.25 c 2
 470 110.3125 l 1
 470 330.3125 l 2
 470 346.875 483.4375 360.3125 500 360.3125 c 0
500 500.3125 m 0
 522.1875 500.3125 540 482.5 540 460.3125 c 0
 540 438.125 522.1875 420.3125 500 420.3125 c 0
 477.8125 420.3125 460 438.125 460 460.3125 c 0
 460 482.5 477.8125 500.3125 500 500.3125 c 0
EndSplineSet
Validated: 1
EndChar

StartChar: J
Encoding: 74 74 18
Width: 1000
Flags: H
LayerCount: 2
Fore
SplineSet
500 700 m 0
 720.9375 700 900 520.9375 900 300 c 0
 900 79.0625 720.9375 -100 500 -100 c 0
 279.0625 -100 100 79.0625 100 300 c 0
 100 520.9375 279.0625 700 500 700 c 0
628.75 421.25 m 2
 450 242.5 l 1
 371.25 321.25 l 2
 359.6875 332.8125 340.625 332.8125 328.75 321.25 c 0
 317.1875 309.6875 317.1875 290.625 328.75 278.75 c 2
 428.75 178.75 l 2
 440.3125 167.1875 459.375 167.1875 471.25 178.75 c 2
 671.25 378.75 l 2
 682.8125 390.3125 682.8125 409.375 671.25 421.25 c 0
 659.375 432.8125 640.625 432.8125 628.75 421.25 c 2
EndSplineSet
Validated: 33
EndChar

StartChar: K
Encoding: 75 75 19
Width: 1000
Flags: H
LayerCount: 2
Fore
SplineSet
453.125 683.125 m 0
 497.8125 707.8125 553.4375 693.4375 580.9375 651.25 c 2
 584.375 645.3125 l 1
 917.8125 43.75 l 2
 925.625 29.375 930 13.4375 930 -3.125 c 0
 930 -54.375 890.3125 -96.25 840 -99.6875 c 2
 833.4375 -100 l 1
 166.875 -100 l 2
 150.625 -100 134.375 -95.9375 120 -87.8125 c 0
 75.3125 -63.125 57.8125 -8.125 79.0625 37.5 c 2
 82.1875 43.75 l 1
 415.3125 645.3125 l 2
 424.0625 661.25 437.1875 674.375 453.125 683.125 c 0
861.25 12.5 m 1
 528.125 614.0625 l 2
 519.375 629.6875 500 635.3125 484.375 626.5625 c 0
 480.3125 624.375 476.875 621.25 474.375 617.8125 c 2
 471.875 614.0625 l 1
 138.75 12.5 l 2
 130 -3.125 135.625 -22.8125 151.25 -31.25 c 0
 154.6875 -33.125 158.75 -34.375 162.8125 -35 c 2
 166.875 -35.3125 l 1
 833.125 -35.3125 l 2
 850.9375 -35.3125 865.3125 -20.9375 865.3125 -3.125 c 0
 865.3125 0.9375 864.6875 5 863.125 8.75 c 2
 861.25 12.5 l 1
 528.125 614.0625 l 1
 861.25 12.5 l 1
500 115.3125 m 0
 523.75 115.3125 542.8125 96.25 542.8125 72.5 c 0
 542.8125 48.75 523.75 29.6875 500 29.6875 c 0
 476.25 29.6875 457.1875 48.75 457.1875 72.5 c 0
 457.1875 96.25 476.25 115.3125 500 115.3125 c 0
499.6875 437.5 m 0
 515.9375 437.5 529.375 425.3125 531.5625 409.6875 c 2
 531.875 405.3125 l 1
 531.875 211.875 l 2
 531.875 194.0625 517.5 179.6875 499.6875 179.6875 c 0
 483.4375 179.6875 470 191.875 467.8125 207.5 c 2
 467.5 211.875 l 1
 467.5 405.3125 l 2
 467.5 423.125 481.875 437.5 499.6875 437.5 c 0
EndSplineSet
Validated: 37
EndChar

StartChar: L
Encoding: 76 76 20
Width: 1000
Flags: H
LayerCount: 2
Fore
SplineSet
536.25 700 m 0
 737.1875 700 900 537.1875 900 336.25 c 0
 900 135.3125 737.1875 -27.5 536.25 -27.5 c 0
 524.0625 -27.5 512.1875 -26.875 500.3125 -25.625 c 1
 511.875 -7.5 520.625 12.1875 526.875 33.4375 c 1
 536.25 33.4375 l 2
 703.4375 33.4375 839.375 169.375 839.375 336.5625 c 0
 839.375 503.75 703.4375 639.6875 536.25 639.6875 c 0
 369.0625 639.6875 233.125 503.75 233.125 336.5625 c 2
 233.125 327.1875 l 1
 212.1875 320.9375 192.1875 312.1875 174.0625 300.625 c 1
 172.8125 312.5 172.1875 324.375 172.1875 336.5625 c 0
 172.8125 537.1875 335.625 700 536.25 700 c 0
509.0625 554.6875 m 0
 522.8125 554.6875 534.375 544.375 535.9375 531.25 c 2
 536.25 527.5 l 1
 536.25 336.5625 l 1
 654.375 336.5625 l 2
 669.375 336.5625 681.5625 324.375 681.5625 309.375 c 0
 681.5625 295.625 671.25 284.0625 658.125 282.5 c 2
 654.375 282.1875 l 1
 509.0625 282.1875 l 2
 495.3125 282.1875 483.75 292.5 482.1875 305.625 c 2
 481.875 309.375 l 1
 481.875 527.1875 l 2
 481.875 542.1875 494.0625 554.6875 509.0625 554.6875 c 0
100.625 101.25 m 0
 100.625 211.25 190 300.625 300 300.625 c 0
 410 300.625 499.375 211.25 499.375 101.25 c 0
 499.375 -8.75 410 -98.125 300 -98.125 c 0
 190 -98.125 100.625 -8.75 100.625 101.25 c 0
318.4375 36.25 m 1
 318.4375 210 l 2
 318.4375 220 310.3125 228.125 300.3125 228.125 c 0
 290.3125 228.125 282.1875 220 282.1875 210 c 2
 282.1875 36.25 l 1
 222.5 95.9375 l 2
 215.3125 103.125 204.0625 103.125 196.875 95.9375 c 0
 189.6875 88.75 189.6875 77.5 196.875 70.3125 c 2
 287.5 -20.3125 l 2
 294.6875 -27.5 305.9375 -27.5 313.125 -20.3125 c 2
 403.75 70.3125 l 2
 410.9375 77.5 410.9375 88.75 403.75 95.9375 c 0
 396.5625 103.125 385.3125 103.125 378.125 95.9375 c 2
 318.4375 36.25 l 1
EndSplineSet
Validated: 524289
EndChar

StartChar: M
Encoding: 77 77 21
Width: 1000
Flags: H
LayerCount: 2
Fore
SplineSet
285.3125 643.75 m 1
 285.3125 643.4375 l 1
 714.6875 643.4375 l 2
 728.75 643.4375 740.3125 632.1875 740.3125 617.8125 c 2
 740.3125 222.8125 l 2
 740.3125 180.3125 705.9375 145.625 663.125 145.625 c 2
 585.9375 145.625 l 1
 585.9375 42.5 l 2
 585.9375 -5 547.5 -43.4375 500 -43.4375 c 0
 452.5 -43.4375 414.0625 -5 414.0625 42.5 c 2
 414.0625 145.625 l 1
 336.875 145.625 l 2
 294.375 145.625 259.6875 180 259.6875 222.8125 c 2
 259.6875 618.125 l 2
 259.6875 632.1875 270.9375 643.75 285.3125 643.75 c 1
310.9375 334.375 m 1
 688.4375 334.375 l 1
 688.4375 592.1875 l 1
 654.0625 592.1875 l 1
 654.0625 497.5 l 2
 654.0625 483.4375 642.5 471.875 628.4375 471.875 c 0
 614.375 471.875 602.8125 483.125 602.8125 497.5 c 2
 602.8125 592.1875 l 1
 568.4375 592.1875 l 1
 568.4375 531.875 l 2
 568.4375 517.8125 556.875 506.25 542.8125 506.25 c 0
 528.75 506.25 517.1875 517.5 517.1875 531.875 c 2
 517.1875 592.1875 l 1
 310.9375 592.1875 l 1
 310.9375 334.375 l 1
310.9375 222.5 m 2
 310.9375 208.4375 322.5 196.875 337.1875 196.875 c 2
 440.3125 196.875 l 2
 454.375 196.875 465.9375 185.625 465.9375 171.25 c 2
 465.9375 42.5 l 2
 465.9375 23.4375 481.25 8.125 500.3125 8.125 c 0
 519.375 8.125 534.6875 23.4375 534.6875 42.5 c 2
 534.6875 171.25 l 2
 534.6875 185.3125 545.9375 196.875 560.3125 196.875 c 2
 663.4375 196.875 l 2
 677.5 196.875 689.0625 208.125 689.0625 222.5 c 2
 689.0625 282.5 l 1
 310.9375 282.5 l 1
 310.9375 222.5 l 2
EndSplineSet
Validated: 524289
EndChar

StartChar: N
Encoding: 78 78 22
Width: 1000
Flags: H
LayerCount: 2
Fore
SplineSet
491.25 370.9375 m 2
 520 341.875 l 1
 548.75 370.625 l 2
 560.3125 382.1875 579.375 382.1875 590.9375 370.625 c 0
 602.5 359.0625 602.5 340 590.9375 328.4375 c 2
 562.1875 299.6875 l 1
 590.9375 270.9375 l 2
 602.5 259.375 602.5 240.3125 590.9375 228.75 c 0
 579.0625 217.1875 560 217.1875 548.4375 228.75 c 2
 519.6875 257.5 l 1
 490.9375 228.75 l 2
 479.375 217.1875 460.3125 217.1875 448.75 228.75 c 0
 437.1875 240.3125 437.1875 259.375 448.75 270.9375 c 2
 477.5 299.6875 l 1
 448.75 328.4375 l 2
 437.1875 340.3125 437.1875 359.375 448.75 370.9375 c 0
 460.625 382.5 479.6875 382.5 491.25 370.9375 c 2
229.375 370.9375 m 0
 240.9375 382.5 260 382.5 271.875 370.9375 c 2
 300.625 342.1875 l 1
 329.375 370.9375 l 2
 340.9375 382.5 360 382.5 371.875 370.9375 c 0
 383.4375 359.375 383.4375 340.3125 371.875 328.75 c 2
 343.125 300 l 1
 371.875 271.25 l 2
 383.4375 259.6875 383.4375 240.625 371.875 229.0625 c 0
 360.3125 217.5 341.25 217.5 329.375 229.0625 c 2
 300.625 257.8125 l 1
 271.875 229.0625 l 2
 260.3125 217.5 241.25 217.5 229.375 229.0625 c 0
 217.8125 240.625 217.8125 259.6875 229.375 271.25 c 2
 258.125 300 l 1
 229.375 328.75 l 2
 217.5 340.3125 217.5 359.375 229.375 370.9375 c 0
679.6875 240 m 2
 749.6875 240 l 2
 766.25 240 779.6875 226.5625 779.6875 210 c 0
 779.6875 193.4375 766.25 180 749.6875 180 c 2
 679.6875 180 l 2
 663.125 180 649.6875 193.4375 649.6875 210 c 0
 649.6875 226.5625 663.125 240 679.6875 240 c 2
230.625 579.375 m 1
 769.6875 579.375 l 2
 841.25 579.375 899.375 521.25 899.375 449.6875 c 2
 899.375 150.3125 l 2
 899.375 78.75 841.25 20.625 769.6875 20.625 c 2
 230.625 20.625 l 2
 159.0625 20.625 100.9375 78.75 100.9375 150.3125 c 2
 100.9375 449.6875 l 2
 100.9375 521.25 159.0625 579.375 230.625 579.375 c 1
160.625 449.6875 m 2
 160.625 150.3125 l 2
 160.625 111.5625 192.1875 80.3125 230.625 80.3125 c 2
 769.0625 80.3125 l 2
 807.8125 80.3125 839.0625 111.875 839.0625 150.3125 c 2
 839.0625 449.6875 l 2
 839.0625 488.4375 807.8125 519.6875 769.375 519.6875 c 2
 230.3125 519.6875 l 2
 191.875 519.6875 160.625 488.4375 160.625 449.6875 c 2
EndSplineSet
Validated: 524321
EndChar

StartChar: percent
Encoding: 37 37 23
Width: 1000
Flags: H
LayerCount: 2
Fore
SplineSet
465.3125 203.75 m 2
 605.3125 343.75 l 2
 615.3125 353.75 631.875 353.75 641.875 343.75 c 0
 651.875 333.75 651.875 317.1875 641.875 307.1875 c 2
 501.875 167.1875 l 2
 414.6875 80 272.8125 79.6875 185.625 167.1875 c 0
 98.4375 254.375 98.4375 396.25 185.625 483.4375 c 2
 330.3125 628.125 l 1
 203.125 628.125 l 2
 188.75 628.125 177.1875 639.6875 177.1875 654.0625 c 0
 177.1875 668.4375 188.75 680 203.125 680 c 2
 392.1875 680 l 2
 397.1875 680 401.5625 678.75 405.3125 676.25 c 0
 407.1875 675 409.0625 673.75 410.625 672.1875 c 0
 415.9375 666.875 418.4375 660.3125 418.125 653.4375 c 2
 418.125 464.6875 l 2
 418.125 450.3125 406.5625 438.75 392.1875 438.75 c 0
 377.8125 438.75 366.25 450.3125 366.25 464.6875 c 2
 366.25 591.5625 l 1
 221.875 446.875 l 2
 154.6875 379.6875 154.6875 270.625 221.875 203.4375 c 0
 289.0625 136.25 398.125 136.5625 465.3125 203.75 c 2
534.6875 396.25 m 2
 394.6875 256.25 l 2
 384.6875 246.25 368.125 246.25 358.125 256.25 c 0
 348.125 266.25 348.125 282.8125 358.125 292.8125 c 2
 498.125 432.8125 l 2
 585.3125 520 727.1875 520.3125 814.375 432.8125 c 0
 901.5625 345.625 901.5625 203.75 814.375 116.5625 c 2
 669.6875 -28.125 l 1
 796.875 -28.125 l 2
 811.25 -28.125 822.8125 -39.6875 822.8125 -54.0625 c 0
 822.8125 -68.4375 811.25 -80 796.875 -80 c 2
 607.8125 -80 l 2
 602.8125 -80 598.4375 -78.75 594.6875 -76.25 c 0
 592.8125 -75 590.9375 -73.75 589.375 -72.1875 c 0
 584.0625 -66.875 581.5625 -60.3125 581.875 -53.4375 c 2
 581.875 135.3125 l 2
 581.875 149.6875 593.4375 161.25 607.8125 161.25 c 0
 622.1875 161.25 633.75 149.6875 633.75 135.3125 c 2
 633.75 8.125 l 1
 778.125 153.125 l 2
 845.3125 220.3125 845.3125 329.375 778.125 396.5625 c 0
 710.9375 463.75 601.875 463.4375 534.6875 396.25 c 2
EndSplineSet
Validated: 524321
EndChar

StartChar: plus
Encoding: 43 43 24
Width: 1000
Flags: H
LayerCount: 2
Fore
SplineSet
500 700 m 0
 720.9375 700 900 520.9375 900 300 c 0
 900 79.0625 720.9375 -100 500 -100 c 0
 279.0625 -100 100 79.0625 100 300 c 0
 100 520.9375 279.0625 700 500 700 c 0
500 640 m 0
 312.1875 640 160 487.8125 160 300 c 0
 160 112.1875 312.1875 -40 500 -40 c 0
 687.8125 -40 840 112.1875 840 300 c 0
 840 487.8125 687.8125 640 500 640 c 0
500 500 m 0
 516.5625 500 530 486.5625 530 470 c 2
 530 330 l 1
 670 330 l 2
 686.5625 330 700 316.5625 700 300 c 0
 700 283.4375 686.5625 270 670 270 c 2
 530 270 l 1
 530 130 l 2
 530 113.4375 516.5625 100 500 100 c 0
 483.4375 100 470 113.4375 470 130 c 2
 470 270 l 1
 330 270 l 2
 313.4375 270 300 283.4375 300 300 c 0
 300 316.5625 313.4375 330 330 330 c 2
 470 330 l 1
 470 470 l 2
 470 486.5625 483.4375 500 500 500 c 0
EndSplineSet
EndChar

StartChar: hyphen
Encoding: 45 45 25
Width: 1000
Flags: H
LayerCount: 2
Fore
SplineSet
500 700 m 0
 720.9375 700 900 520.9375 900 300 c 0
 900 79.0625 720.9375 -100 500 -100 c 0
 279.0625 -100 100 79.0625 100 300 c 0
 100 520.9375 279.0625 700 500 700 c 0
500 640 m 0
 312.1875 640 160 487.8125 160 300 c 0
 160 112.1875 312.1875 -40 500 -40 c 0
 687.8125 -40 840 112.1875 840 300 c 0
 840 487.8125 687.8125 640 500 640 c 0
330 270 m 2
 313.4375 270 300 283.4375 300 300 c 0
 300 316.5625 313.4375 330 330 330 c 2
 670 330 l 2
 686.5625 330 700 316.5625 700 300 c 0
 700 283.4375 686.5625 270 670 270 c 2
 330 270 l 2
EndSplineSet
EndChar
